<mxfile host="app.diagrams.net" modified="2023-12-29T13:19:23.105Z" agent="Mozilla/5.0 (X11; Linux x86_64) AppleWebKit/537.36 (KHTML, like Gecko) Chrome/120.0.0.0 Safari/537.36" etag="mpGKVJaL9lAzSmBBKLQH" version="22.1.16" type="github">
  <diagram name="Page-1" id="sA_XJBTGGigjXfbo3M2D">
    <mxGraphModel dx="1050" dy="577" grid="1" gridSize="10" guides="1" tooltips="1" connect="1" arrows="1" fold="1" page="1" pageScale="1" pageWidth="850" pageHeight="1100" math="0" shadow="0">
      <root>
        <mxCell id="0" />
        <mxCell id="1" parent="0" />
        <mxCell id="q1e89dlwhiU9dOJ3c9pH-1" value="" style="rounded=0;whiteSpace=wrap;html=1;" vertex="1" parent="1">
          <mxGeometry x="40" y="40" width="240" height="540" as="geometry" />
        </mxCell>
        <mxCell id="q1e89dlwhiU9dOJ3c9pH-2" value="" style="rounded=0;whiteSpace=wrap;html=1;" vertex="1" parent="1">
          <mxGeometry x="560" y="40" width="240" height="540" as="geometry" />
        </mxCell>
        <mxCell id="q1e89dlwhiU9dOJ3c9pH-3" value="&lt;b&gt;&lt;u&gt;&lt;font style=&quot;font-size: 16px;&quot;&gt;SHOPIFY&lt;/font&gt;&lt;/u&gt;&lt;/b&gt;" style="text;html=1;align=center;verticalAlign=middle;resizable=0;points=[];autosize=1;strokeColor=none;fillColor=none;" vertex="1" parent="1">
          <mxGeometry x="115" y="10" width="90" height="30" as="geometry" />
        </mxCell>
        <mxCell id="q1e89dlwhiU9dOJ3c9pH-4" value="&lt;span style=&quot;font-size: 16px;&quot;&gt;&lt;b&gt;&lt;u&gt;ERPNext&lt;br&gt;&lt;/u&gt;&lt;/b&gt;&lt;/span&gt;" style="text;html=1;align=center;verticalAlign=middle;resizable=0;points=[];autosize=1;strokeColor=none;fillColor=none;" vertex="1" parent="1">
          <mxGeometry x="635" y="10" width="90" height="30" as="geometry" />
        </mxCell>
        <mxCell id="q1e89dlwhiU9dOJ3c9pH-5" style="edgeStyle=none;rounded=0;orthogonalLoop=1;jettySize=auto;html=1;" edge="1" parent="1" source="q1e89dlwhiU9dOJ3c9pH-6" target="q1e89dlwhiU9dOJ3c9pH-8">
          <mxGeometry relative="1" as="geometry" />
        </mxCell>
        <mxCell id="q1e89dlwhiU9dOJ3c9pH-6" value="API credentails&lt;br&gt;(API key, API password)" style="rounded=1;whiteSpace=wrap;html=1;" vertex="1" parent="1">
          <mxGeometry x="100" y="60" width="120" height="80" as="geometry" />
        </mxCell>
        <mxCell id="q1e89dlwhiU9dOJ3c9pH-7" value="" style="edgeStyle=none;rounded=0;orthogonalLoop=1;jettySize=auto;html=1;" edge="1" parent="1" source="q1e89dlwhiU9dOJ3c9pH-8" target="q1e89dlwhiU9dOJ3c9pH-10">
          <mxGeometry relative="1" as="geometry" />
        </mxCell>
        <mxCell id="q1e89dlwhiU9dOJ3c9pH-8" value="&lt;b&gt;&lt;u&gt;Settings page&lt;/u&gt;&lt;/b&gt;&lt;br&gt;Stored API credentails&lt;br&gt;(API key, API password)" style="rounded=1;whiteSpace=wrap;html=1;" vertex="1" parent="1">
          <mxGeometry x="620" y="60" width="120" height="80" as="geometry" />
        </mxCell>
        <mxCell id="q1e89dlwhiU9dOJ3c9pH-9" style="edgeStyle=none;rounded=0;orthogonalLoop=1;jettySize=auto;html=1;exitX=0;exitY=0.5;exitDx=0;exitDy=0;" edge="1" parent="1" source="q1e89dlwhiU9dOJ3c9pH-10" target="q1e89dlwhiU9dOJ3c9pH-13">
          <mxGeometry relative="1" as="geometry" />
        </mxCell>
        <mxCell id="q1e89dlwhiU9dOJ3c9pH-10" value="Trigger Cancel Orders" style="rounded=1;whiteSpace=wrap;html=1;" vertex="1" parent="1">
          <mxGeometry x="620" y="190" width="120" height="80" as="geometry" />
        </mxCell>
        <mxCell id="q1e89dlwhiU9dOJ3c9pH-11" value="&lt;span style=&quot;color: rgb(0, 0, 0); font-family: Helvetica; font-size: 12px; font-style: normal; font-variant-ligatures: normal; font-variant-caps: normal; font-weight: 400; letter-spacing: normal; orphans: 2; text-align: center; text-indent: 0px; text-transform: none; widows: 2; word-spacing: 0px; -webkit-text-stroke-width: 0px; background-color: rgb(251, 251, 251); text-decoration-thickness: initial; text-decoration-style: initial; text-decoration-color: initial; float: none; display: inline !important;&quot;&gt;GET Request(Cancel orders)&lt;/span&gt;" style="text;whiteSpace=wrap;html=1;" vertex="1" parent="1">
          <mxGeometry x="340" y="200" width="170" height="40" as="geometry" />
        </mxCell>
        <mxCell id="q1e89dlwhiU9dOJ3c9pH-12" style="edgeStyle=none;rounded=0;orthogonalLoop=1;jettySize=auto;html=1;entryX=0;entryY=0.5;entryDx=0;entryDy=0;" edge="1" parent="1" source="q1e89dlwhiU9dOJ3c9pH-13" target="q1e89dlwhiU9dOJ3c9pH-15">
          <mxGeometry relative="1" as="geometry">
            <Array as="points">
              <mxPoint x="160" y="350" />
            </Array>
          </mxGeometry>
        </mxCell>
        <mxCell id="q1e89dlwhiU9dOJ3c9pH-13" value="Cancelled Orders" style="rounded=1;whiteSpace=wrap;html=1;" vertex="1" parent="1">
          <mxGeometry x="100" y="190" width="120" height="80" as="geometry" />
        </mxCell>
        <mxCell id="q1e89dlwhiU9dOJ3c9pH-14" style="rounded=0;orthogonalLoop=1;jettySize=auto;html=1;" edge="1" parent="1" source="q1e89dlwhiU9dOJ3c9pH-15" target="q1e89dlwhiU9dOJ3c9pH-17">
          <mxGeometry relative="1" as="geometry" />
        </mxCell>
        <mxCell id="q1e89dlwhiU9dOJ3c9pH-15" value="Cancel Order JSON" style="rounded=1;whiteSpace=wrap;html=1;" vertex="1" parent="1">
          <mxGeometry x="620" y="310" width="120" height="80" as="geometry" />
        </mxCell>
        <mxCell id="q1e89dlwhiU9dOJ3c9pH-16" value="&lt;span style=&quot;color: rgb(0, 0, 0); font-family: Helvetica; font-size: 12px; font-style: normal; font-variant-ligatures: normal; font-variant-caps: normal; font-weight: 400; letter-spacing: normal; orphans: 2; text-align: center; text-indent: 0px; text-transform: none; widows: 2; word-spacing: 0px; -webkit-text-stroke-width: 0px; background-color: rgb(251, 251, 251); text-decoration-thickness: initial; text-decoration-style: initial; text-decoration-color: initial; float: none; display: inline !important;&quot;&gt;Response - Cancelled Order JSON&lt;/span&gt;" style="text;whiteSpace=wrap;html=1;" vertex="1" parent="1">
          <mxGeometry x="330" y="320" width="190" height="40" as="geometry" />
        </mxCell>
        <mxCell id="q1e89dlwhiU9dOJ3c9pH-17" value="Cancel Sales Order" style="rounded=1;whiteSpace=wrap;html=1;" vertex="1" parent="1">
          <mxGeometry x="620" y="460" width="120" height="80" as="geometry" />
        </mxCell>
        <mxCell id="q1e89dlwhiU9dOJ3c9pH-18" value="&lt;span style=&quot;color: rgb(0, 0, 0); font-family: Helvetica; font-size: 12px; font-style: normal; font-variant-ligatures: normal; font-variant-caps: normal; letter-spacing: normal; orphans: 2; text-align: center; text-indent: 0px; text-transform: none; widows: 2; word-spacing: 0px; -webkit-text-stroke-width: 0px; background-color: rgb(251, 251, 251); text-decoration-thickness: initial; text-decoration-style: initial; text-decoration-color: initial; float: none; display: inline !important;&quot;&gt;Partial Orders&lt;/span&gt;" style="text;whiteSpace=wrap;html=1;fontStyle=1" vertex="1" parent="1">
          <mxGeometry x="117.5" y="160" width="85" height="30" as="geometry" />
        </mxCell>
      </root>
    </mxGraphModel>
  </diagram>
</mxfile>
